<svg class="block dark:hidden w-full h-full fill-gray-900 max-w-[12rem]" xmlns="http://www.w3.org/2000/svg" fill="none" viewBox="0 0 814 183" aria-hidden="true"><path fill="currentColor" fill-rule="evenodd" d="M81 0a9 9 0 0 0-9 9v114l.8 1.2L83 141.5l4.3 7.4 4.3-7.4 10.2-17.3.7-1.2V9c0-5-4-9-9-9H81Zm1 16.7v-6.6h10.5v6.6H82Zm0 10h10.5v92.5l-5.2 4-5.2-4V26.7ZM26.6 47.2c2.6 0 6.2 0 10.3.3 8.8.6 19.7 2.2 29 6.4l4-9.1a97 97 0 0 0-32.4-7.3 136.8 136.8 0 0 0-16.2-.1H21l.4 5-.4-5-4.6.4v110.1h5.3a58 58 0 0 1 5 .3A155.2 155.2 0 0 1 84.9 164l2.4 1.2 2.3-1.2c14.5-8 30.4-12 42.7-14a161 161 0 0 1 20.5-2h5.1V37.3h-5v5-5h-.1a65.1 65.1 0 0 0-5 .1c-3.2.1-7.6.3-12.5.8-9.5.8-21.7 2.6-30.1 6.5l4.1 9c6.8-3 17.4-4.7 27-5.6 4.5-.4 8.6-.6 11.6-.7V138a149.8 149.8 0 0 0-17.3 2c-12.3 2-28.3 6-43.5 13.8A163.6 163.6 0 0 0 26.5 138V47.2ZM.7 157.2V53.3h10v99.1a185 185 0 0 1 21.7 2.4 212 212 0 0 1 55.5 16.5c19-9.4 39.3-14.1 54.7-16.5a225 225 0 0 1 22.7-2.4v-99h10v108.8h-5.5a78.7 78.7 0 0 0-6.7.3c-4.6.3-11.2 1-19 2.1a180.3 180.3 0 0 0-53.8 16.7l-2.2 1.1-2.3-1a200.7 200.7 0 0 0-80-19.2h-5v-5Z" clip-rule="evenodd"></path><path fill="currentColor" d="M248.5 130.4c0 .5-.3.6-1.1.6h-25.6v-3c0-1.2.3-1.7 1.3-2 3.6-1.3 4.8-2.3 4.8-4.5V85.2c0-1.8-.6-2.3-4.8-3.3-1-.2-1.3-.6-1.3-1.5v-3.2l20.6-4-.2 10.4a26.6 26.6 0 0 1 20-10.3c10 0 16.2 5.9 16.2 16.7v34.4l6.5 2v4c0 .5-.3.6-1.1.6h-25.6v-3c0-1.2.3-1.7 1.3-2 3.6-1.3 4.7-2.3 4.7-4.5V94.2c0-7-3.3-10.5-9.7-10.5a22 22 0 0 0-12.4 4v36.7l6.4 2v4Zm96.5-27.6c0 17.2-11.7 29.5-28.3 29.5-17 0-27.3-11.5-27.3-29.5 0-17.2 11.5-29.5 28.2-29.5 16.8 0 27.4 11.6 27.4 29.5Zm-14.9 2c0-19-5.4-25.5-13.4-25.5-8.5 0-12.5 8.1-12.5 21.7 0 18.9 5.4 25.3 13.5 25.3 8.5 0 12.4-8.2 12.4-21.6ZM386 77.6v-3.1h19c.9 0 1 0 1 .5v4l-5.6 2.4-18.7 49.5H370l-18-47.1c-.8-2-2.1-2.8-5.3-4-1-.5-1.2-1.2-1.2-2.1v-3.1H371c.9 0 1.1 0 1.1.5v4l-6.5 2 14.4 38.4 12-36c.5-1.9-.9-2.4-4.8-3.9-1.1-.4-1.3-1-1.3-2Zm68.2 46c-4.6 5.9-13.3 8.6-21.7 8.6-15.8 0-26.6-11.4-26.6-29.8 0-17 10.7-29.3 26.3-29.3 14.9 0 22.1 9.5 22.1 23.3 0 1.4 0 2.7-.3 4.6a209 209 0 0 1-33.8 2.6c1.3 13 7.6 19.8 18 19.8 5.4 0 10.2-1.4 13.3-3.8l2.7 4Zm-23-44.4c-6.8 0-11.2 6.3-11.3 19l21.1-2c1-9.6-2-17-9.8-17Zm55 51.1c0 .5-.2.6-1 .6h-25.7v-3c0-1.2.2-1.7 1.2-2 3.7-1.3 4.9-2.3 4.9-4.5V59.2c0-1.9-.5-2.3-4.9-3.3-.8-.3-1.2-.6-1.2-1.5v-3.3l20.6-4-.3 10.4v66.9l6.5 2v4Zm39.5-49.1a11.4 11.4 0 0 0-6.4-1.9c-9.5 0-13.9 7.3-13.9 19.4 0 15.5 6.2 24.7 17.5 24.7 5.3 0 9.6-1.4 12.7-3.8l2.8 4c-4.6 5.9-13 8.6-21.3 8.6-15.3 0-26.3-11-26.3-29 0-17.8 11.4-30 29.3-30 6.2 0 11.6 1.2 16.6 3.6l-2 16.8h-4.2c-1.1 0-1.8-.3-2.2-1.5-1.2-3-2-7-2.6-11Zm45.7 49.1c0 .5-.3.6-1.1.6h-28v-3c0-1.2.2-1.7 1.2-2l1.4-.4c2.6-1 3.5-2 3.5-4V85c0-1.7-.5-2.2-4.9-3.3-.8-.2-1.2-.5-1.2-1.4V77l20.6-3.8-.3 10.4V87c4-8.7 10-13.8 19.1-13.8a21 21 0 0 1-1.9 14.5l-3-.4-3.5.1c-4 .4-7.7 1.6-10.7 3.7v33.2l8.8 2v4Zm56.3 2c-5.5 0-9.2-2.8-10.4-8.6a20.8 20.8 0 0 1-16.8 8.5c-9 0-15.3-5.7-15.3-15.3 0-12.2 11.7-16.1 28-16.3h3.4v-9.3c0-10.1-4.6-12.1-10.6-12.1a23 23 0 0 0-6.6.8c-.5 3.4-1.5 7.6-2.7 10.3-.5 1.1-1 1.5-2 1.5h-4.8l-1.6-13.6c6-3.2 14-5 22.2-5 15.5 0 20.4 7 20.4 18.4V119c0 3.2 1.6 4.3 3.8 4.3 1.2 0 2.2-.2 3-.9l2.4 4c-2.5 3.7-7.4 6-12.4 6Zm-29.5-17.1c0 4.7 2.7 8.3 8.6 8.3 3.5 0 7-1.4 9.8-3.3V106h-3c-10.3 0-15.4 3.5-15.4 9.3Zm72.7 15.1c0 .5-.2.6-1 .6h-28v-3c0-1.2.3-1.7 1.3-2l1.5-.5c2.5-1.1 3.2-2 3.2-4V81.2h-6.7v-6.6h6.7c0-3.5.3-7 .7-10.4 1.3-10.6 7-17 20.9-17h.9c3.6 0 8.6 1 11.9 2.4L680.6 65h-4.4c-.6 0-1-.2-1.4-1.1a47.7 47.7 0 0 1-2.9-9.2 6.2 6.2 0 0 0-4-1.5l-.8.1c-2.8.4-5 3.1-5 11.4v9.9H676v8c-3.6-.4-8.1-.8-13.9-1v42.8l8.7 2v4Zm7.7-49.2v-6.6h7.4l9-16.2h4.7v16.2H714v8c-3.6-.4-8.4-.8-14.3-1v31.6c0 7 1.9 10.1 6.4 10.1 2.6 0 5.6-1 7.8-2.4l2.7 4.4c-4 4.4-10.7 7-17.6 7-7.9 0-13.6-4.7-13.6-16.2V81h-6.8Zm88.7 42.4c-4.6 6-13.3 8.7-21.8 8.7-15.7 0-26.5-11.4-26.5-29.8 0-17 10.7-29.3 26.3-29.3 14.9 0 22.1 9.5 22.1 23.3 0 1.4 0 2.7-.3 4.6a209 209 0 0 1-33.8 2.6c1.2 13 7.6 19.8 18 19.8 5.3 0 10.2-1.4 13.3-3.8l2.7 4Zm-23-44.3c-6.8 0-11.2 6.3-11.3 19l21.1-2c1-9.6-2-17-9.8-17Zm57.3 51.1c0 .5-.2.6-1 .6h-28v-3c0-1.2.2-1.7 1.2-2l1.3-.4c2.7-1 3.5-2 3.5-4V85c0-1.7-.4-2.2-4.8-3.3-.9-.2-1.2-.5-1.2-1.4V77l20.6-3.8-.4 10.4V87c4-8.7 10-13.8 19.2-13.8a21 21 0 0 1-1.9 14.5l-3-.4-3.5.1c-4 .4-7.7 1.6-10.8 3.7v33.2l8.8 2v4Z"></path></svg>